<svg class="o-logo" width="233" height="57" viewBox="110 44 233 57" xmlns="http://www.w3.org/2000/svg" xmlns:xlink="http://www.w3.org/1999/xlink"><defs><path id="a" d="M8.187.31v10.192H.092V.31h8.095z"/><path id="c" d="M0 54.613h231.943V.026H0z"/></defs><g fill="none" fill-rule="evenodd"><path fill="#1D1C1B" d="M110 99.112h115.752V44.525H110z"/><path fill="#FBBB2C" d="M117.782 91.313h45.717v-7.797h-37.935V60.121h30.154v7.798h-30.154v7.798H163.5V52.323h-45.717z"/><path fill="#009EE3" d="M171.28 60.122h38.908v23.394h-31.126v-7.798h31.126V67.92H171.28v23.393h46.69v-38.99h-46.69z"/><path fill="#FEFEFE" d="M244.065 58.126h3.195v-1.952h-3.196V54.3h4.563v-1.98h-7.187v9.872h7.288v-1.978h-4.663z"/><g transform="translate(110 44.499)"><path d="M146.313 9.707v2.581h1.036c.589.001.998-.093 1.229-.276.228-.18.36-.457.364-1.014-.003-.558-.136-.836-.364-1.015-.231-.183-.64-.277-1.23-.276h-1.035zm0 4.493v3.493h-2.581V7.822h3.86c1.173.002 2.163.193 2.89.695.733.502 1.149 1.338 1.144 2.453.01 1.2-.666 2.182-1.89 2.686l2.74 3.602.332.436h-3.249l-2.418-3.494h-.828zm17.256 3.493h2.61V7.822h-2.61v3.8h-3.783l.001-3.8h-2.61v9.871h2.61v-4.08h3.78zm13.69-.174l3.557-9.698h-2.534l-2.459 7.245-2.35-7.245h-2.81l3.607 9.873h2.925zm10.668-3.892h3.195v-1.952h-3.195V9.8h4.562V7.822H185.3v9.87h7.29v-1.977h-4.664zm14.512-1.615c-.231.182-.64.278-1.23.276h-1.033V9.707h1.033c.59-.001.999.093 1.23.276.228.18.36.457.364 1.014-.004.559-.136.836-.364 1.015zm1.16 1.644c1.224-.504 1.897-1.486 1.887-2.684.006-1.116-.411-1.953-1.142-2.454-.728-.503-1.719-.695-2.89-.696h-3.862v9.87h2.584V14.2h.826l2.418 3.493h3.25l-.332-.435-2.74-3.602zm12.53 4.037l.064-.174 3.56-9.697h-2.536l-2.459 7.243-2.349-7.243h-2.81l3.606 9.87z" fill="#FEFEFE"/><g transform="translate(223.756 7.352)"><mask id="b" fill="#fff"><use xlink:href="#a"/></mask><path d="M7.9 6.043c-.51-.979-1.62-1.368-2.614-1.595-.684-.163-1.354-.282-1.82-.47-.475-.205-.67-.392-.677-.759 0-.332.228-.542.652-.71.413-.157.95-.208 1.318-.206.6-.002 1.182.06 1.614.122.435.062.72.125.72.124l.317.07V.63L7.203.581c-.005 0-.262-.056-.665-.117A13.449 13.449 0 004.558.31c-.582 0-1.15.048-1.681.155a4.663 4.663 0 00-1.38.492C.657 1.429.084 2.265.092 3.447c.003 1.846 1.54 2.466 2.871 2.819.679.185 1.346.325 1.81.52.48.208.674.4.674.7-.002.373-.236.606-.66.794-.415.176-.968.244-1.381.243-.626 0-1.355-.095-1.93-.19-.573-.096-.992-.192-.993-.19L.165 8.07v2.04l.2.05c.013.004 1.397.34 3.228.342 1.01-.002 2.126-.183 3.022-.667.543-.289 1.005-.714 1.286-1.271.181-.362.288-.777.286-1.252 0-.51-.107-.925-.286-1.27" fill="#FEFEFE" mask="url(#b)"/></g><path d="M135.064 27.918l1.357-3.996 1.317 3.996h-2.674zm7.128 3.951l-3.991-10.352h-3.383l-3.904 9.699-.41 1.021h3.022l.833-2.327h4.08l.847 2.327h3.049l-.143-.368zm10.241-5.111l5.06-5.24h-3.602l-3.892 4.492v-4.492h-2.753v10.72h2.753v-4.436l4.07 4.435h3.833l-.46-.462zm13.312 1.159l1.357-3.993 1.317 3.993h-2.674zm3.138-6.4h-3.384l-4.314 10.72h3.023l.833-2.327h4.078l.849 2.328h3.048l-.142-.37-3.991-10.35zm15.277 8.184c-.535.406-1.244.46-1.85.457h-1.599v-6.574h1.199l.347-.002c.607-.002 1.33.046 1.879.453.543.404.994 1.182.997 2.843-.003 1.643-.442 2.42-.973 2.823m1.72-7.445c-1.239-.7-2.706-.738-3.768-.74a54.76 54.76 0 01-.485.002h-3.701v10.719h4.156c1.06-.001 2.533-.036 3.78-.733 1.253-.698 2.223-2.104 2.214-4.626.01-2.518-.95-3.925-2.197-4.622m10.911 5.545h3.486v-2.08h-3.486v-2.093h4.978v-2.11h-7.793v10.72h7.902v-2.11h-5.087zm19.059-6.283l-.054.196-1.984 7.17-1.962-7.366h-3.97l-1.025 10.72h2.431l.638-7.969 2.22 7.97h3.015l2.302-7.953.493 7.952h2.747l-1.025-10.72z" fill="#FEFEFE"/><mask id="d" fill="#fff"><use xlink:href="#c"/></mask><path fill="#FEFEFE" mask="url(#d)" d="M226.698 32.237h2.801v-10.72h-2.801zm4.959 5.978h.018v-2.154h-.018zm-94.894 2.187c-.746-.178-1.477-.309-1.989-.516-.52-.222-.748-.436-.754-.85 0-.376.262-.614.728-.797.454-.172 1.043-.228 1.445-.228 1.316 0 2.549.273 2.551.272l.317.069V36.23l-.206-.046c-.01-.002-1.327-.297-2.882-.297-1.235.002-2.418.185-3.327.704a2.905 2.905 0 00-1.208 1.265 3.174 3.174 0 00-.312 1.429c0 .522.118.952.312 1.311.548 1.014 1.73 1.456 2.804 1.741.739.201 1.465.354 1.976.568.525.226.75.442.75.786-.003.42-.269.683-.735.888-.458.196-1.063.27-1.516.268-.684 0-1.482-.104-2.109-.209-.627-.103-1.083-.207-1.084-.206l-.086-.02-.234-.054v2.179l.202.048.032.008c.119.028.597.133 1.307.223.591.075 1.34.14 2.176.14a8.734 8.734 0 001.548-.14c.612-.113 1.211-.299 1.738-.583.97-.518 1.708-1.422 1.702-2.731.003-2.118-1.68-2.765-3.146-3.1m13.674-.039l-2.508-4.301h-3.339l4.282 6.562v4.158h2.846v-4.157l4.297-6.563h-3.041zm17.401 3.883c-.535.407-1.245.458-1.85.457l-.4-.002h-1.2v-6.574h1.2l.349-.002c.605 0 1.33.048 1.877.454.544.404.993 1.183.998 2.843-.004 1.643-.443 2.42-.974 2.824m1.72-7.446c-1.239-.7-2.706-.738-3.767-.741-.175 0-.34.003-.486.003h-3.7v10.72h4.155c1.06-.003 2.533-.037 3.78-.735 1.254-.696 2.222-2.103 2.214-4.625.008-2.517-.95-3.925-2.197-4.622m13.151 7.214l-2.58-7.953h-3.014l3.917 10.72h3.157l.064-.174 3.87-10.546h-2.714zm14.28-1.668h3.485v-2.08h-3.485v-2.095h4.977v-2.11h-7.793v10.72h7.903v-2.11h-5.087zm16.905-1.944c-.747-.178-1.478-.308-1.989-.516-.52-.223-.748-.435-.753-.85 0-.376.261-.614.726-.797.455-.172 1.045-.229 1.447-.228.656 0 1.292.067 1.764.135.474.068.785.137.786.136l.317.07V36.23l-.206-.045c-.01-.002-1.327-.297-2.881-.297-1.235 0-2.42.185-3.326.703-.912.51-1.529 1.414-1.522 2.694.003 1.995 1.66 2.666 3.115 3.052.74.2 1.466.354 1.977.567.525.226.75.443.75.788-.001.419-.269.682-.736.888-.457.195-1.062.269-1.515.268-1.368 0-3.19-.417-3.193-.417l-.318-.073v2.179l.2.048c.008.002.52.127 1.336.231.592.075 1.342.14 2.18.14.503 0 1.03-.045 1.547-.14.612-.113 1.21-.299 1.738-.583.97-.518 1.708-1.422 1.702-2.73.003-2.12-1.68-2.766-3.146-3.101m8.324-2.187h3.297v8.567h2.848v-8.567h3.295V36.06h-9.44z"/></g></g></svg>